<?xml version="1.0" standalone="no"?>
<!DOCTYPE svg PUBLIC "-//W3C//DTD SVG 20010904//EN"
 "http://www.w3.org/TR/2001/REC-SVG-20010904/DTD/svg10.dtd">
<svg version="1.0" xmlns="http://www.w3.org/2000/svg"
 width="1000.000000pt" height="500.000000pt" viewBox="0 0 1000.000000 500.000000"
 preserveAspectRatio="xMidYMid meet">

<g transform="translate(0.000000,500.000000) scale(0.100000,-0.100000)"
fill="#000000" stroke="none">
<path d="M1081 3411 c-8 -5 -45 -17 -83 -27 -37 -10 -68 -21 -68 -26 0 -4 81
-8 180 -8 l180 0 10 -27 c64 -178 72 -193 102 -193 16 0 31 6 34 14 3 7 -15
64 -39 127 -25 63 -48 122 -51 132 -5 15 -20 17 -128 17 -68 0 -129 -4 -137
-9z"/>
<path d="M2796 3103 c-1 -1 -317 -3 -704 -5 -504 -2 -703 -6 -706 -14 -3 -7
-68 -14 -183 -19 -493 -22 -492 -22 -93 -23 212 -2 829 -2 1371 -2 542 0 988
-2 991 -6 4 -3 -2 -20 -13 -37 -10 -18 -19 -36 -19 -42 0 -11 39 36 40 48 0 4
12 26 26 48 14 23 24 42 22 44 -4 4 -728 12 -732 8z"/>
<path d="M1446 2948 c24 -76 33 -88 69 -88 40 0 42 7 18 67 -17 40 -21 43 -56
43 -35 0 -38 -2 -31 -22z"/>
<path d="M1300 2789 c-74 -4 -223 -12 -330 -19 -107 -6 -275 -15 -373 -20 -98
-4 -180 -10 -183 -13 -3 -3 642 -3 1434 0 1071 4 1441 2 1447 -6 3 -7 -3 -28
-15 -48 -14 -24 -16 -32 -6 -24 16 14 76 118 76 133 0 10 -1861 8 -2050 -3z"/>
<path d="M1567 2663 c-3 -5 6 -35 18 -68 13 -33 56 -143 96 -245 39 -102 76
-191 82 -198 8 -10 142 -12 638 -12 441 1 635 -3 649 -10 32 -17 60 -70 60
-112 0 -48 13 -48 35 -3 22 47 22 85 1 130 -32 67 -15 65 -709 65 l-624 0 -57
148 c-32 81 -72 184 -89 229 -31 80 -33 83 -64 83 -17 0 -34 -3 -36 -7z"/>
<path d="M2465 2493 c-16 -2 -86 -11 -155 -19 -69 -9 -153 -20 -188 -24 -35
-5 -66 -11 -69 -14 -4 -3 278 -6 625 -6 l631 0 15 22 c35 49 44 48 -406 47
-233 -1 -436 -4 -453 -6z"/>
<path d="M1955 1789 c-17 -5 -43 -22 -59 -38 l-28 -29 64 5 c51 3 69 1 95 -16
44 -28 64 -62 72 -123 l6 -52 19 29 c26 39 31 102 12 147 -26 60 -112 97 -181
77z"/>
<path d="M2275 1773 c3 -15 11 -31 17 -34 6 -4 110 -8 232 -8 121 -1 222 -4
225 -6 2 -3 -4 -32 -14 -66 -37 -134 25 -275 150 -341 29 -16 64 -23 128 -26
83 -4 91 -3 152 27 56 28 113 77 101 88 -2 2 -25 -8 -51 -22 -41 -21 -61 -25
-136 -25 -102 0 -153 18 -212 75 -84 82 -112 201 -73 313 8 22 12 43 9 46 -4
3 -125 6 -271 6 l-264 0 7 -27z"/>
<path d="M3032 1792 c-27 -8 -92 -59 -92 -72 0 -6 10 -6 26 0 64 25 143 1 180
-54 9 -14 19 -49 23 -78 l7 -53 22 35 c46 73 19 169 -58 208 -45 22 -67 25
-108 14z"/>
<path d="M1702 1753 c-86 -122 -57 -314 62 -404 60 -46 104 -59 195 -59 101 0
179 37 231 110 l22 30 -48 -32 c-45 -30 -56 -33 -145 -36 -109 -5 -156 10
-222 67 -58 52 -87 124 -87 221 0 45 5 90 11 102 17 31 3 32 -19 1z"/>
</g>
</svg>
